<svg class="w-6 h-6" width="24" height="24" viewBox="0 0 24 24" fill="#fff" xmlns="http://www.w3.org/2000/svg">
<circle r="1.5" transform="matrix(-1 0 0 1 12 1.5)" fill="#fff"/>
<circle r="1.5" transform="matrix(-1 0 0 1 22.5 12)" fill="#fff" fill-opacity="0.3"/>
<circle r="1.5" transform="matrix(-1 0 0 1 21 6.75)" fill="#fff" fill-opacity="0.1"/>
<circle cx="21" cy="17.25" r="1.5" transform="rotate(180 21 17.25)" fill="#fff" fill-opacity="0.5"/>
<circle cx="3" cy="6.75" r="1.5" fill="#fff"/>
<circle r="1.5" transform="matrix(1 0 0 -1 3 17.25)" fill="#fff"/>
<circle r="1.5" transform="matrix(-1 0 0 1 17.25 3)" fill="#fff" fill-opacity="0.05"/>
<circle cx="17.25" cy="21" r="1.5" transform="rotate(180 17.25 21)" fill="#fff" fill-opacity="0.7"/>
<circle cx="6.75" cy="3" r="1.5" fill="#fff"/>
<circle r="1.5" transform="matrix(1 0 0 -1 6.75 21)" fill="#fff"/>
<circle r="1.5" transform="matrix(-1 0 0 1 12 22.5)" fill="#fff" fill-opacity="0.9"/>
<circle r="1.5" transform="matrix(-1 0 0 1 1.5 12)" fill="#fff"/>
</svg>
